<svg width="535" height="463" viewBox="0 0 535 463" fill="none" xmlns="http://www.w3.org/2000/svg">
<g opacity="0.07" clip-path="url(#clip0_1_68)">
<path fill-rule="evenodd" clip-rule="evenodd" d="M616.093 460.681C616.093 460.681 607.655 440.872 584.502 415.116C573.983 403.407 560.423 390.525 543.188 377.597C532.23 369.378 519.806 361.141 505.724 353.179C488.05 343.183 467.819 333.517 444.474 325.225C367.574 297.5 276.592 258.926 197.677 207.855C144.233 173.268 96.3509 132.963 61.9922 86.6196C57.5118 80.5725 54.2406 75.1298 51.3361 69.046C48.7157 63.5852 46.3887 57.6115 43.7134 50.1901C43.3194 49.1547 43.8416 47.9909 44.886 47.5969C45.9214 47.2121 47.0848 47.7346 47.4697 48.7791C50.2825 55.9716 52.7013 61.762 55.395 67.0395C58.327 72.7751 61.5801 77.897 66.0146 83.5685C101.015 128.427 149.282 166.9 202.762 199.802C282.026 248.554 372.815 284.947 449.513 310.776C473.939 319.132 495.27 328.716 513.659 339.179C528.437 347.581 541.356 356.477 552.598 365.466C570.291 379.64 583.897 393.952 594.195 406.944C617.055 435.787 623.817 457.886 623.817 457.886C624.586 460.012 623.487 462.366 621.352 463.145C619.227 463.915 616.863 462.806 616.093 460.681Z" fill="white"/>
<path fill-rule="evenodd" clip-rule="evenodd" d="M81.59 110.643C81.59 110.643 79.7302 109.745 76.7158 108.04C75.3323 107.252 73.7195 106.336 71.9786 105.209C68.0205 102.653 63.3663 99.2628 57.9606 96.5232C52.6006 93.8112 46.7549 91.4563 40.6895 90.4942C39.9931 90.4393 39.4803 89.8255 39.5352 89.1292C39.5902 88.4328 40.204 87.9199 40.9003 87.9749C49.1372 88.0665 57.4018 90.412 64.6125 93.3714C67.4803 94.5534 70.1645 95.8084 72.5742 97.1277C74.4158 98.1356 76.1389 99.1159 77.5865 100.16C79.0892 101.251 80.3076 102.351 81.3154 103.322C83.5969 105.502 84.7144 106.968 84.7144 106.968C85.7314 107.83 85.8508 109.35 84.9895 110.367C84.1283 111.384 82.607 111.504 81.59 110.643Z" fill="white"/>
<path fill-rule="evenodd" clip-rule="evenodd" d="M141.146 166.393C141.146 166.393 139.424 166.833 136.391 167.108C135.045 167.227 133.459 167.319 131.673 167.227C129.95 167.126 128.072 166.806 126.084 166.421C123.482 165.926 120.724 165.202 117.874 164.295C110.746 162.032 103.251 158.587 97.1859 153.328C96.627 152.907 96.5077 152.119 96.9292 151.56C97.3415 151.001 98.1385 150.881 98.6974 151.294C103.709 154.464 109.409 156.361 114.979 157.662C120.623 158.972 126.12 159.275 130.601 159.769C132.571 159.989 134.311 160.291 135.805 160.548C139.076 161.107 141 161.574 141 161.574C142.328 161.528 143.437 162.573 143.483 163.901C143.529 165.23 142.475 166.348 141.146 166.393Z" fill="white"/>
<path fill-rule="evenodd" clip-rule="evenodd" d="M105.347 132.467C105.347 132.467 104.697 131.074 103.945 128.555C103.606 127.428 103.24 126.109 103.011 124.579C102.791 123.103 102.736 121.463 102.69 119.713C102.635 117.404 102.718 114.931 102.892 112.384C103.35 105.365 104.559 97.9711 107.216 92.3729C107.464 91.7224 108.188 91.3926 108.847 91.6308C109.498 91.8782 109.828 92.611 109.59 93.2615C108.655 96.6515 108.398 100.564 108.426 104.614C108.453 109.112 108.985 113.666 109.498 117.78C109.745 119.805 110.075 121.693 110.222 123.406C110.313 124.597 110.313 125.678 110.304 126.658C110.277 129.746 110.093 131.588 110.093 131.588C110.332 132.898 109.47 134.153 108.16 134.4C106.85 134.638 105.586 133.768 105.347 132.467Z" fill="white"/>
<path fill-rule="evenodd" clip-rule="evenodd" d="M247.23 236.836C247.23 236.836 242.081 237.312 233.743 238.045C229.858 238.384 225.304 238.796 220.246 239.172C208.565 240.052 194.271 241.005 179.896 243.414C164.631 245.98 149.266 249.819 136.815 255.884C136.201 256.205 135.44 255.967 135.11 255.353C134.79 254.739 135.028 253.969 135.642 253.649C150.989 244.972 171.146 239.401 190.13 235.892C197.213 234.591 204.121 233.547 210.562 232.805C215.464 232.246 220.072 231.778 224.278 231.577C228.603 231.366 232.478 231.384 235.758 231.439C242.951 231.567 247.267 232.017 247.267 232.017C248.604 232.026 249.676 233.116 249.658 234.444C249.648 235.773 248.558 236.845 247.23 236.836Z" fill="white"/>
<path fill-rule="evenodd" clip-rule="evenodd" d="M177.787 271.231C176.422 265.348 177.916 258.422 180.252 252.145C181.242 249.498 182.378 247.015 183.56 244.797C184.128 243.734 184.668 242.717 185.291 241.838C185.942 240.931 186.62 240.161 187.27 239.501C189.323 237.394 190.77 236.387 190.77 236.387C191.604 235.36 193.107 235.204 194.133 236.038C195.159 236.872 195.315 238.375 194.481 239.401C194.481 239.401 194.005 240.711 192.96 242.855C192.484 243.817 191.961 244.953 191.228 246.153C190.147 247.913 188.681 249.763 187.344 251.861C185.557 254.683 183.752 257.707 182.442 260.896C181.058 264.258 180.097 267.639 180.216 270.91C180.298 271.579 179.831 272.193 179.162 272.284C178.493 272.376 177.879 271.9 177.787 271.231Z" fill="white"/>
<path fill-rule="evenodd" clip-rule="evenodd" d="M240.459 322.219C254.688 308.686 275.212 299.35 295.094 293.064C303.862 290.297 312.484 288.107 320.382 286.458C324.249 285.652 327.941 284.937 331.395 284.443C334.987 283.92 338.322 283.59 341.29 283.361C350.508 282.647 356.261 282.821 356.261 282.821C357.581 282.748 358.708 283.755 358.781 285.066C358.864 286.385 357.856 287.512 356.536 287.594C356.536 287.594 349.774 288.575 339.247 290.49C337.433 290.819 335.509 291.159 333.484 291.507C331.643 291.809 329.718 292.112 327.721 292.432C315.187 294.43 299.987 297.343 285.052 302.126C269.265 307.184 253.772 314.138 242.099 324.033C241.595 324.491 240.825 324.445 240.367 323.941C239.918 323.437 239.964 322.668 240.459 322.219Z" fill="white"/>
<path fill-rule="evenodd" clip-rule="evenodd" d="M300.842 330.007C299.523 323.814 302.326 314.926 306.138 306.717C307.576 303.592 309.152 300.596 310.738 297.912C311.489 296.629 312.213 295.392 313.001 294.32C313.816 293.212 314.65 292.258 315.419 291.425C317.857 288.823 319.57 287.467 319.57 287.467C320.395 286.432 321.897 286.257 322.933 287.073C323.959 287.897 324.133 289.4 323.317 290.435C323.317 290.435 322.594 292.085 321.164 294.724C320.514 295.933 319.762 297.344 318.782 298.837C317.334 301.064 315.447 303.427 313.67 306.048C311.232 309.63 308.749 313.47 306.844 317.299C304.626 321.761 303.059 326.059 303.261 329.687C303.352 330.356 302.885 330.97 302.217 331.061C301.548 331.153 300.934 330.676 300.842 330.007Z" fill="white"/>
<path fill-rule="evenodd" clip-rule="evenodd" d="M396.305 385.942C409.142 367.04 426.633 356.018 443.775 349.659C452.315 346.489 460.771 344.482 468.523 343.291C472.353 342.705 476.008 342.274 479.426 342.1C482.972 341.917 486.243 341.972 489.156 342.119C498.145 342.577 503.724 343.887 503.724 343.887C505.034 344.07 505.942 345.279 505.749 346.589C505.566 347.891 504.356 348.798 503.055 348.614C503.055 348.614 497.668 348.376 489.147 348.798C486.371 348.926 483.256 349.155 479.875 349.402C475.633 349.714 470.96 350.053 466.031 350.759C459.59 351.684 452.69 353.068 445.681 355.257C428.96 360.471 411.625 370.009 398.284 387.371C397.89 387.921 397.121 388.04 396.58 387.646C396.031 387.252 395.902 386.483 396.305 385.942Z" fill="white"/>
<path fill-rule="evenodd" clip-rule="evenodd" d="M182.129 104.073C177.758 114.088 177.2 127.264 178.207 140.494C179.096 152.24 181.387 163.977 183.494 173.607C183.824 175.128 184.144 176.584 184.419 177.995C184.731 179.534 184.997 181.01 185.244 182.402C186.646 190.483 187.608 195.669 187.608 195.669C187.993 196.925 187.287 198.262 186.023 198.647C184.767 199.032 183.43 198.327 183.045 197.062C183.045 197.062 180.901 192.059 178.491 183.997C178.079 182.604 177.676 181.12 177.3 179.553C176.961 178.115 176.649 176.612 176.365 175.054C174.505 165.076 173.022 152.845 172.912 140.723C172.793 126.833 174.579 113.117 179.92 103.011C180.214 102.406 180.947 102.15 181.561 102.443C182.165 102.736 182.422 103.469 182.129 104.073Z" fill="white"/>
<path fill-rule="evenodd" clip-rule="evenodd" d="M292.402 172.45C289.323 185.296 291.569 199.387 295.893 212.727C299.943 225.197 305.962 236.916 311.313 246.363C312.156 247.856 312.972 249.285 313.741 250.678C314.584 252.19 315.372 253.646 316.114 255.03C320.384 262.983 323.362 268.013 323.362 268.013C324.15 269.067 323.92 270.569 322.867 271.348C321.804 272.136 320.311 271.916 319.523 270.853C319.523 270.853 315.455 266.346 310.186 258.622C309.279 257.293 308.354 255.855 307.428 254.315C306.585 252.913 305.761 251.42 304.936 249.863C299.659 239.922 294.225 227.36 290.817 214.212C287.125 199.964 285.906 185.03 290.038 171.8C290.221 171.149 290.89 170.764 291.541 170.947C292.191 171.121 292.576 171.799 292.402 172.45Z" fill="white"/>
<path fill-rule="evenodd" clip-rule="evenodd" d="M395.853 212.455C394.305 226.079 396.284 239.859 399.701 252.604C403.155 265.486 408.24 277.223 412.785 286.615C413.518 288.136 414.233 289.592 414.901 290.994C415.634 292.542 416.312 294.017 416.954 295.41C420.674 303.555 423.285 308.568 423.285 308.568C424.018 309.667 423.715 311.142 422.616 311.875C421.526 312.608 420.042 312.305 419.309 311.206C419.309 311.206 416.221 307.468 412.107 300.798C410.788 298.654 409.377 296.217 407.984 293.486C406.655 290.866 405.391 287.961 404.117 284.874C401.543 278.634 399.05 271.579 396.989 264.029C392.609 247.968 390.209 229.68 393.434 212.097C393.526 211.429 394.149 210.97 394.817 211.062C395.486 211.163 395.954 211.786 395.853 212.455Z" fill="white"/>
<path fill-rule="evenodd" clip-rule="evenodd" d="M438.33 243.405C429.36 249.526 423.817 256.672 420.262 263.498C418.668 266.567 417.541 269.573 416.661 272.367C415.965 274.566 415.525 276.646 415.058 278.515C414.691 280.027 414.297 281.392 413.995 282.62C413.069 286.44 412.675 288.805 412.675 288.805C412.758 290.115 411.75 291.251 410.44 291.333C409.12 291.416 407.984 290.408 407.911 289.098C407.911 289.098 407.243 286.322 407.389 281.722C407.426 280.274 407.581 278.662 407.92 276.921C408.25 275.263 408.8 273.522 409.459 271.708C410.76 268.153 412.602 264.323 415.177 260.474C419.804 253.603 426.685 246.667 437.075 241.298C437.661 240.959 438.413 241.142 438.752 241.729C439.1 242.306 438.907 243.057 438.33 243.405Z" fill="white"/>
<path fill-rule="evenodd" clip-rule="evenodd" d="M39.5294 0.978769C47.7205 0.419867 54.052 3.50709 58.6973 8.72962C61.6659 12.0555 63.8464 16.3437 65.3398 21.1539C66.7875 25.8267 67.5207 31.0311 67.594 36.3911C67.7498 48.3021 64.6249 60.9826 59.3841 70.6855L58.2114 72.9213L55.7558 72.2983C42.9102 68.7708 33.3269 54.2481 29.0848 38.9837C25.9604 27.7231 25.6668 16.2154 28.6262 9.03216C30.7152 3.95623 34.316 0.868822 39.5294 0.978769ZM54.8488 65.3164C44.8985 61.5049 37.642 49.6765 33.7755 37.5822C30.5321 27.4487 29.6619 17.0125 32.0716 10.3698C33.4184 6.6774 35.7911 4.22197 39.5294 4.1395C45.0451 4.53348 49.1865 6.80558 52.3658 10.159C55.4902 13.4574 57.4879 17.929 58.7706 23.0049C59.8243 27.183 60.3282 31.755 60.3924 36.4828C60.5023 46.3323 58.6328 56.8046 54.8488 65.3164Z" fill="white"/>
<path fill-rule="evenodd" clip-rule="evenodd" d="M2.05188 76.091C3.7744 69.5399 8.78587 66.1496 15.2361 65.1967C18.7087 64.6836 22.6304 65.032 26.6801 66.049C30.5191 67.011 34.477 68.6415 38.2611 70.813C46.6721 75.6416 54.2037 83.1274 58.3451 91.5384L59.8936 94.5806L56.7692 95.9362C47.3961 99.7569 28.4484 101.81 15.3737 98.163C8.62108 96.2847 3.41696 92.9129 1.48371 87.8095C0.274281 84.6394 0.246902 80.7638 2.05188 76.091ZM50.786 91.4009C41.7062 94.4794 27.1199 96.1563 16.4916 93.7557C7.7874 91.7767 1.8321 86.9297 5.02975 77.1535C6.73394 73.4428 9.81237 71.7114 13.5048 71.1525C16.8765 70.6394 20.7431 71.2899 24.8112 72.6092C28.0638 73.6538 31.3988 75.1744 34.6697 77.0618C40.891 80.6443 46.8279 85.5645 50.786 91.4009Z" fill="white"/>
<path fill-rule="evenodd" clip-rule="evenodd" d="M43.0267 132.42L44.8498 131.999C51.5016 130.176 59.1799 128.866 67.0046 128.985C72.0622 129.067 77.1566 129.773 82.0309 131.156C93.9969 134.574 104.625 142.133 110.58 155.556L111.79 158.195L109.124 159.349C99.7506 163.243 84.3216 166.468 70.3582 162.052C59.4734 158.607 49.3853 150.617 43.8421 134.638L43.0267 132.42ZM47.7639 135.856C54.8555 134.757 62.9089 134.62 70.8526 135.646C76.2492 136.342 81.6187 137.552 86.5847 139.76C93.5481 142.857 99.7415 147.759 104.039 155.308C95.536 158.589 83.1486 160.98 71.6316 157.764C62.1852 155.116 53.3804 148.656 47.7639 135.856Z" fill="white"/>
<path fill-rule="evenodd" clip-rule="evenodd" d="M85.4536 256.123L86.6721 255.078C91.9954 250.085 98.3815 245.879 105.427 242.938C110.036 241.005 114.929 239.64 119.886 238.87C132.539 236.9 145.641 238.815 156.599 245.128L159.384 246.685L157.552 249.287C152.641 256.022 139.466 268.721 123.77 272.019C112.07 274.475 98.9405 271.909 86.8829 257.744L85.4536 256.123ZM90.8137 257.304C95.798 253.658 101.57 250.836 107.645 248.71C111.933 247.207 116.376 246.09 120.884 245.403C131.073 243.854 141.582 244.569 150.817 248.683C145.512 255.197 135.104 264.607 122.772 267.621C112.803 270.059 101.616 268.217 90.8137 257.304Z" fill="white"/>
<path fill-rule="evenodd" clip-rule="evenodd" d="M151.142 305.488V303.793C151.014 301.301 151.335 291.919 154.395 281.914C155.806 277.278 157.904 272.559 160.579 268.317C165.326 260.785 172.078 254.848 181.158 253.327L183.082 252.97L184.127 254.638C189.844 264.176 190.174 278.368 183.403 289.363C178.043 298.067 168.313 304.856 153.369 305.369L151.142 305.488ZM180.278 259.493C184.401 267.318 184.475 278.249 179.5 287.063C175.313 294.512 167.552 300.43 155.641 301.97C156.191 298.406 157.776 291.405 160.488 283.957C161.981 279.861 163.749 275.592 166.104 271.753C169.512 266.182 174.011 261.399 180.278 259.493Z" fill="white"/>
<path fill-rule="evenodd" clip-rule="evenodd" d="M194.963 347.863L196.301 346.259C201.23 339.818 206.856 332.214 213.38 325.598C217.778 321.136 222.606 317.169 227.563 314.044C237.302 307.905 247.766 305.212 258.202 309.088L261.188 310.15L259.823 313.018C255.645 321.383 245.677 342.347 229.358 350.538C220.517 354.973 209.834 355.843 197.217 349.035L194.963 347.863ZM201.102 347.349C206.086 341.879 211.849 335.851 217.878 330.225C222.13 326.258 226.491 322.465 231.054 319.515C238.127 314.933 245.576 312.184 253.236 313.66C248.984 322.895 240.757 339.534 227.407 346.791C220.197 350.712 211.483 351.784 201.102 347.349Z" fill="white"/>
<path fill-rule="evenodd" clip-rule="evenodd" d="M229.756 248.378L231.533 248.644C237.608 249.313 246.211 251.796 255.227 255.855C260.046 258.027 264.966 260.665 269.685 263.643C282.815 271.953 294.268 282.893 298.235 293.677L299.518 297.049L295.936 297.544C277.015 299.926 262.09 296.27 251.241 289.518C236.014 280.025 228.748 264.44 229.637 250.687L229.756 248.378ZM232.807 253.299C239.239 254.902 247.833 258.778 256.684 263.661C262.063 266.621 267.569 269.919 272.627 273.575C280.534 279.283 287.46 285.679 291.235 292.358C275.604 294.071 263.015 291.157 253.578 285.651C240.347 277.936 233.302 265.201 232.807 253.299Z" fill="white"/>
<path fill-rule="evenodd" clip-rule="evenodd" d="M363.99 425.771L364.448 423.572C365.172 418.945 366.061 414.3 367.197 409.774C368.379 405.083 369.763 400.51 371.439 396.259C373.986 389.781 377.147 384.018 380.602 379.373C388.912 368.195 399.293 363.421 410.819 370.073L413.522 371.594L411.735 374.123C409.289 377.494 408.336 383.414 406.742 389.928C404.69 398.33 401.785 407.639 394.803 414.657C388.958 420.539 380.253 424.9 366.647 425.588L363.99 425.771ZM369.268 422.134C370.266 418.505 371.403 414.913 372.603 411.368C374.087 406.988 375.755 402.755 377.477 398.742C379.997 392.86 382.7 387.491 385.797 383.175C391.331 375.479 397.9 371.081 405.624 373.839C404.002 377.733 403.04 383.038 401.821 388.81C400.19 396.525 397.946 405.156 391.807 411.771C387.061 416.874 380.015 420.741 369.268 422.134Z" fill="white"/>
<path fill-rule="evenodd" clip-rule="evenodd" d="M366.656 327.614L368.745 328.283C374.141 329.749 382.342 328.32 391.303 327.605C395.233 327.285 399.301 327.092 403.323 327.238C407.529 327.394 411.679 327.963 415.61 329.035C425.863 331.838 434.668 338.215 438.873 352.096L439.881 355.303L436.555 355.77C415.555 358.381 398.678 358.262 386.859 355.001C372.895 351.152 365.675 343.089 366.527 330.244L366.656 327.614ZM369.725 333.029C375.332 334.321 383.185 334.001 391.614 333.827C395.362 333.744 399.219 333.698 403.04 333.881C406.769 334.056 410.461 334.413 413.961 335.292C421.593 337.226 428.273 341.541 432.249 350.658C413.741 353.306 398.715 353.544 387.913 350.923C376.845 348.239 370.421 342.476 369.725 333.029Z" fill="white"/>
<path fill-rule="evenodd" clip-rule="evenodd" d="M274.472 363.798V362.103C274.344 359.611 274.674 350.228 277.725 340.223C279.145 335.587 281.243 330.868 283.918 326.626C288.664 319.095 295.417 313.148 304.488 311.636L306.421 311.279L307.466 312.946C313.174 322.484 313.513 336.668 306.742 347.672C301.382 356.376 291.652 363.156 276.708 363.679L274.472 363.798ZM303.608 317.803C307.731 325.627 307.805 336.558 302.839 345.372C298.642 352.821 290.882 358.731 278.971 360.27C279.521 356.715 281.106 349.706 283.818 342.266C285.311 338.161 287.079 333.901 289.434 330.062C292.852 324.491 297.35 319.708 303.608 317.803Z" fill="white"/>
<path fill-rule="evenodd" clip-rule="evenodd" d="M121.345 53.9461C127.593 55.5129 130.902 60.3231 131.845 66.6634C132.34 69.9619 132.028 73.7187 131.085 77.6494C130.205 81.296 128.703 85.0982 126.668 88.7998C122.399 96.5877 115.783 103.927 108.004 109.012L105.43 110.744L103.616 108.233C96.753 98.2372 95.9011 85.9228 98.549 75.4595C100.409 68.1571 103.909 61.7987 108.05 57.8405C112.173 53.9007 116.901 52.2511 121.345 53.9461ZM106.978 101.774C102.324 93.9674 101.683 84.6583 103.314 76.5404C104.88 68.7433 108.472 61.9727 112.897 58.6559C115.233 56.9059 117.772 56.1177 120.31 56.924C123.791 58.5182 125.385 61.4501 125.898 65.0143C126.357 68.2119 125.743 71.8859 124.506 75.8257C123.526 78.9226 122.115 82.1388 120.355 85.3365C117.066 91.3195 112.531 97.2384 106.978 101.774Z" fill="white"/>
<path fill-rule="evenodd" clip-rule="evenodd" d="M187.157 44.4708L188.036 45.0944C196.429 50.5551 201.377 58.6818 203.32 67.725C204.593 73.6531 204.492 79.9844 203.374 86.114C200.387 102.478 189.86 117.431 176.877 121.81L174.348 122.699L173.386 120.198C168.768 107.664 166.514 93.7551 167.916 80.7812C169.4 67.1385 174.87 54.5312 185.773 45.6346L187.157 44.4708ZM186.433 49.2997C192.645 54.4673 195.834 61.4583 197.08 68.9072C197.959 74.1298 197.868 79.5995 196.924 84.9503C194.615 98.0707 187.395 110.532 177.509 115.534C173.469 104.549 171.389 92.5366 172.278 81.1845C173.221 69.0902 177.509 57.7566 186.433 49.2997Z" fill="white"/>
<path fill-rule="evenodd" clip-rule="evenodd" d="M210.036 115.525L210.475 116.78C213.307 123.551 214.26 129.406 213.646 134.372C213.068 139.017 211.117 142.893 208.359 145.99C202.321 152.788 191.867 155.867 180.469 155.656H177.711V152.898C177.977 140.777 180.844 132.878 184.922 127.601C191.335 119.281 200.754 117.376 208.112 115.947L210.036 115.525ZM206.783 119.529C208.121 124.944 208.139 129.507 207.378 133.373C206.728 136.672 205.399 139.412 203.439 141.656C198.968 146.787 191.565 149.417 183.218 150.012C183.383 140.859 185.38 134.583 188.449 130.194C193.287 123.267 200.617 121.059 206.783 119.529Z" fill="white"/>
<path fill-rule="evenodd" clip-rule="evenodd" d="M280.3 103.385L281.307 103.76C290.919 106.958 297.964 114.059 302.307 123.01C305.047 128.636 306.641 135.013 307.255 141.463C308.96 159.22 302.912 177.572 291.487 185.113L289.261 186.615L287.694 184.444C278.513 171.333 271.623 153.906 270.771 137.258C270.175 125.457 272.576 114.059 279.264 104.86L280.3 103.385ZM280.84 108.241C288.299 111.722 293.301 118.154 296.553 125.658C298.762 130.762 300.155 136.378 300.741 142.105C302.179 156.389 298.762 171.333 290.488 178.864C282.279 166.99 276.085 151.734 274.903 136.992C274.078 126.694 275.691 116.652 280.84 108.241Z" fill="white"/>
<path fill-rule="evenodd" clip-rule="evenodd" d="M243.049 188.943L244.268 188.668C252.559 186.368 260.201 186.13 267.119 187.926C272.185 189.245 276.849 191.682 281.054 195.054C289.548 201.861 296.163 212.701 300.882 226.847L302.338 231.025L297.931 230.576C283.959 228.927 266.816 227.141 255.528 217.832C248.638 212.151 243.791 203.74 243.178 190.858L243.049 188.943ZM246.531 192.626C253.476 191.554 259.715 192.122 265.378 193.945C269.565 195.292 273.404 197.372 276.941 200.194C283.812 205.682 289.539 213.882 293.964 224.593C281.723 223.558 267.833 222.01 258.14 214.552C252.138 209.952 247.823 203.062 246.531 192.626Z" fill="white"/>
<path fill-rule="evenodd" clip-rule="evenodd" d="M327.971 165.433L328.403 166.697C331.371 173.981 331.893 181.082 330.482 187.514C329.438 192.278 327.275 196.649 324.462 200.451C317.197 210.264 305.268 216.256 293.879 216.082H291.102V213.306C291.341 200.689 295.198 190.849 300.521 183.473C308.245 172.772 319.002 167.256 326.038 165.854L327.971 165.433ZM324.737 169.519C326.176 175.438 325.772 180.954 324.343 185.975C323.244 189.85 321.485 193.405 319.176 196.566C313.706 204.052 305.304 209.284 296.673 210.337C296.994 200.295 299.981 192.233 304.131 185.975C310.132 176.941 318.48 171.608 324.737 169.519Z" fill="white"/>
<path fill-rule="evenodd" clip-rule="evenodd" d="M389.924 136.27L391.949 137.03C401.67 140.31 409.568 148.959 414.506 159.853C417.42 166.267 419.234 173.478 419.967 180.615C422.12 201.688 414.451 222.148 395.824 225.043L394.652 225.236L393.708 224.503C385.087 217.64 381.101 209.449 379.873 200.415C377.353 181.88 386.891 159.661 389.622 138.853L389.924 136.27ZM392.434 141.987C399.691 145.835 405.024 153.495 408.652 162.382C411.08 168.31 412.757 174.815 413.462 181.302C415.35 198.601 410.805 216.01 396.072 219.418C386.635 211.786 383.905 202.037 384.07 191.298C384.308 175.887 390.272 158.525 392.434 141.987Z" fill="white"/>
<path fill-rule="evenodd" clip-rule="evenodd" d="M471.588 205.701L471.899 206.572C474.886 213.956 474.666 220.828 472.385 226.912C471.34 229.698 469.838 232.318 467.95 234.7C459.145 245.796 442.598 252.044 429.707 251.888H427.893L427.15 250.23C422.963 240.491 426.143 230.824 433.161 222.963C442.387 212.619 458.146 205.472 469.874 205.701H471.588ZM468.106 208.954C469.709 215.248 468.656 220.773 466.164 225.592C464.331 229.111 461.692 232.235 458.531 234.947C450.982 241.425 440.582 245.576 431.567 246.19C429.075 239.098 431.741 232.025 436.716 226.014C444.422 216.723 457.578 209.833 468.106 208.954Z" fill="white"/>
</g>
<defs>
<clipPath id="clip0_1_68">
<rect width="534" height="462" fill="white" transform="matrix(-1 0 0 1 534.667 0.913818)"/>
</clipPath>
</defs>
</svg>
