<svg width="81" height="80" viewBox="0 0 81 80" fill="none" xmlns="http://www.w3.org/2000/svg">
<path d="M73.419 31.4384H7.61875C4.50131 31.4384 3.16527 28.0002 5.61468 26.3656L38.5148 4.55257C39.1223 4.19078 39.8142 4 40.5189 4C41.2236 4 41.9155 4.19078 42.523 4.55257L75.4231 26.3656C77.8725 28.0002 76.5365 31.4384 73.419 31.4384Z" stroke="#5D55FF" stroke-width="4" stroke-linecap="round" stroke-linejoin="round"/>
<path d="M73.9193 62.4388H7.11693C5.57968 62.4388 4.3335 63.7006 4.3335 65.2571V73.7117C4.3335 75.2682 5.57968 76.53 7.11693 76.53H73.9193C75.4565 76.53 76.7027 75.2682 76.7027 73.7117V65.2571C76.7027 63.7006 75.4565 62.4388 73.9193 62.4388Z" stroke="#5D55FF" stroke-width="4" stroke-linecap="round" stroke-linejoin="round"/>
<path d="M12.6837 31.4385V62.4389M26.6009 31.4385V62.4389M40.518 31.4385V62.4389M54.4352 31.4385V62.4389M68.3523 31.4385V62.4389" stroke="#5D55FF" stroke-width="4" stroke-linecap="round" stroke-linejoin="round"/>
</svg>
