<svg width="81" height="80" viewBox="0 0 81 80" fill="none" xmlns="http://www.w3.org/2000/svg">
<path d="M15.1018 17.7207V44.1114C15.1018 58.4783 26.4895 70.1223 40.535 70.1223C54.5805 70.1223 65.9682 58.4783 65.9682 44.1114V17.735L40.3822 9.1333L15.1018 17.7207ZM40.3751 4L70.7365 14.2027V44.1114C70.7365 61.1692 57.2133 75 40.535 75C23.8567 75 10.3335 61.1692 10.3335 44.1114V14.2027L40.3751 4ZM56.0763 27.0217C55.8444 26.8089 55.5719 26.6449 55.2752 26.5395C54.9785 26.4341 54.6635 26.3896 54.3492 26.4085C54.0348 26.4273 53.7275 26.5093 53.4455 26.6494C53.1635 26.7896 52.9127 26.985 52.708 27.2241L37.3727 44.864L27.4666 33.9123C27.2572 33.6779 27.0027 33.4879 26.7183 33.3538C26.4339 33.2196 26.1253 33.144 25.8111 33.1314C25.4968 33.1188 25.1832 33.1695 24.889 33.2805C24.5947 33.3915 24.3258 33.5605 24.0983 33.7774C23.6324 34.2223 23.3582 34.8309 23.3336 35.4743C23.3091 36.1177 23.5362 36.7454 23.9668 37.2244L35.6566 50.1464C35.8792 50.3965 36.1529 50.5961 36.4592 50.7316C36.7655 50.8671 37.0973 50.9355 37.4323 50.9321C37.7673 50.9288 38.0977 50.8537 38.4012 50.7121C38.7047 50.5704 38.9743 50.3655 39.1919 50.111L56.2717 30.4652C56.6933 29.9784 56.9086 29.3467 56.8721 28.704C56.8356 28.0612 56.5502 27.4579 56.0763 27.0217Z" fill="#1D1C31"/>
</svg>
