<svg width="180" height="36" viewBox="0 0 180 36" fill="none" xmlns="http://www.w3.org/2000/svg">
<path d="M8.47467 17.7548L4.40232 21.7651L0.333496 17.7548L4.40232 13.7445L8.47467 17.7548ZM18.3476 8.01707L25.3202 14.8928L29.389 10.8825L18.3476 0L7.30611 10.8825L11.3749 14.8928L18.3476 8.01707ZM32.2963 13.7445L28.2275 17.7548L32.2963 21.7651L36.3616 17.7548L32.2963 13.7445ZM18.3476 27.4926L11.3749 20.6203L7.30611 24.6271L18.3476 35.5096L29.389 24.6271L25.3202 20.6203L18.3476 27.4926ZM18.3476 21.7651L22.4164 17.7548L18.3476 13.7445L14.2787 17.7548L18.3476 21.7651ZM61.2885 22.1502V22.0947C61.2885 19.479 59.8806 18.1711 57.5892 17.3108C58.9971 16.5302 60.1868 15.3056 60.1868 13.1097V13.0542C60.1868 9.99446 57.7018 8.01707 53.6647 8.01707H44.4993V27.4926H53.897C58.3565 27.4926 61.2955 25.7129 61.2955 22.1502H61.2885ZM55.868 13.8243C55.868 15.271 54.6537 15.885 52.7355 15.885H48.7335V11.7741H53.0241C54.8579 11.7741 55.8751 12.4957 55.8751 13.7758L55.868 13.8243ZM56.9697 21.6159C56.9697 23.0625 55.8117 23.7286 53.8899 23.7286H48.7335V19.4512H53.7562C55.9877 19.4512 56.9768 20.2595 56.9768 21.5674L56.9697 21.6159ZM70.4222 27.4926V8.01707H66.0612V27.4926H70.4222ZM93.7898 27.4926V8.01707H89.4851V20.0097L80.2282 8.01707H76.2192V27.4926H80.5098V15.1114L90.0764 27.4926H93.7898ZM117.868 27.4926L109.386 7.87831H105.377L96.9118 27.4926H101.343L103.156 23.125H111.512L113.317 27.4926H117.868ZM109.967 19.3402H104.701L107.327 13.0264L109.967 19.3402ZM138.589 27.4926V8.01707H134.284V20.0097L125.024 8.01707H121.019V27.4926H125.306V15.1114L134.876 27.4926H138.589ZM161.027 24.3496L158.264 21.5951C156.712 22.9827 155.329 23.8743 153.069 23.8743C149.683 23.8743 147.339 21.099 147.339 17.7548V17.6993C147.339 14.362 149.74 11.6353 153.069 11.6353C155.044 11.6353 156.589 12.4679 158.124 13.8313L160.88 10.6883C159.046 8.90863 156.818 7.68404 153.09 7.68404C147.022 7.68404 142.788 12.2181 142.788 17.7444V17.7999C142.788 23.3921 147.107 27.8152 152.922 27.8152C156.726 27.8256 158.983 26.49 161.013 24.3496H161.027ZM179.577 27.4926V23.6766H168.834V19.5796H178.151V15.7636H168.834V11.8296H179.422V8.01361H164.516V27.4891L179.577 27.4926Z" fill="#B6B3EB"/>
</svg>
