<svg width="81" height="32" viewBox="0 0 81 32" fill="none" xmlns="http://www.w3.org/2000/svg">
<mask id="mask0_355_164" style="mask-type:luminance" maskUnits="userSpaceOnUse" x="0" y="0" width="81" height="32">
<path d="M0.728516 0V6.53322H5.1958V25.1096H0.850147V31.5641H16.3954V25.1096H11.9281V6.53322H16.2737V0H0.728516ZM44.9741 0.0787136V6.53322H49.4415V25.1096H45.0958V31.5641H56.1736V13.6048L62.7747 31.5578L62.9089 31.561L69.3915 13.6048V31.5641H80.5907V25.1096H76.1233V6.53322H80.4691V0.0787136H67.9841L62.8149 14.4746L57.5801 0.0787136H44.9741Z" fill="white"/>
<path d="M18.4766 0.079834V6.53434H22.9438V16.7671H40.1391V14.8049C40.1391 14.8049 41.5775 13.6996 42.0359 12.6508L42.9561 10.6156C42.9561 10.6156 43.3835 9.4765 43.3835 8.4585L43.1995 6.42336C43.1995 6.42336 42.9107 4.76541 42.4071 4.27227L40.6288 2.23399C40.6288 2.23399 38.3661 0.079834 35.3691 0.079834H18.4766ZM29.6757 6.53434H36.2238V12.5166H29.6757V6.53434Z" fill="white"/>
<path d="M18.4766 31.5642V25.1097H22.9438V14.8769H40.1391V16.8391C40.1391 16.8391 41.5775 17.9444 42.0359 18.9933L42.9561 21.0284C42.9561 21.0284 43.3835 22.1675 43.3835 23.1855L43.1995 25.2207C43.1995 25.2207 42.9107 26.8786 42.4071 27.3718L40.6288 29.4101C40.6288 29.4101 38.3661 31.5642 35.3691 31.5642H18.4766ZM29.6757 25.1097H36.2238V19.1275H29.6757V25.1097Z" fill="white"/>
</mask>
<g mask="url(#mask0_355_164)">
<path d="M0.728516 1.15576H82.9872V5.34584H0.728516M0.728516 9.53592H78.5948V13.7268H0.728516V17.9161H78.5948V22.1054H0.728516M0.728516 26.2962H82.9872V30.4871H0.728516" fill="#B6B3EB"/>
<path d="M0.728516 1.15576H82.9872V5.34584H0.728516M0.728516 9.53592H78.5948V13.7268H0.728516V17.9161H78.5948V22.1054H0.728516M0.728516 26.2962H82.9872V30.4871H0.728516" stroke="#B6B3EB" stroke-width="25.2648"/>
</g>
</svg>
