<svg width="132" height="32" viewBox="0 0 132 32" fill="none" xmlns="http://www.w3.org/2000/svg">
<path fill-rule="evenodd" clip-rule="evenodd" d="M42.5697 31.1111H47.5389V17.5057H50.2078C57.2018 17.5057 66.4975 16.9606 66.4975 9.06994C66.4975 1.08801 57.7548 0.453014 50.7601 0.453014H36.7715V1.26923C41.7415 1.81358 42.5697 2.53991 42.5697 5.35084V31.1111ZM47.5389 5.35077C47.5389 2.62979 47.8147 2.26735 52.509 2.26735C57.6621 2.26735 60.7906 4.5347 60.7906 9.06994C60.7906 14.9659 55.4536 15.782 50.0239 15.782H47.5389V5.35077ZM71.8353 5.89519C71.8353 2.1767 71.0066 1.90499 66.0369 1.26923V0.453014H77.6321L95.7619 25.3971H95.8537V0.453014H98.8914V31.1111H94.4733L74.9632 4.44482H74.8714V31.1111H71.8353V5.89519ZM131.47 30.2941C128.709 31.0205 126.04 31.5641 120.61 31.5641C109.751 31.5641 103.86 24.0366 103.86 14.7839C103.86 6.53019 107.358 0 119.229 0C127.972 0 131.102 3.62715 131.47 6.71141H125.856C125.58 5.26027 124.567 2.08545 118.861 2.08545C112.696 2.08545 109.475 6.62152 109.475 13.6053C109.475 20.0456 111.131 29.5693 123.831 29.5693C127.236 29.5693 130.825 28.5712 131.47 28.39V30.2941Z" fill="#B6B3EB"/>
<path fill-rule="evenodd" clip-rule="evenodd" d="M24.668 17.9622H21.0682C21.2181 17.593 21.1438 17.0761 20.8435 16.4842L18.8183 13.1584L15.4434 7.31792C15.4434 7.31792 14.1686 4.95262 12.2938 3.54849C13.4937 3.99211 28.6434 12.7142 28.6434 12.7142C31.1187 14.1927 33.2931 17.8883 24.668 17.9622ZM13.2683 27.3505C10.793 28.7546 6.36804 28.7546 10.6432 21.3635C11.393 20.1058 12.443 18.2587 12.443 18.2587C12.7433 18.6279 13.1934 18.8494 13.8683 18.8494H24.668C24.668 18.8494 27.3686 18.9232 29.5437 18.0372C28.5685 18.7756 13.2683 27.3505 13.2683 27.3505ZM8.09361 6.94811C8.09361 4.1398 10.3435 0.36919 14.6936 7.68767C15.4434 9.0186 16.4935 10.7925 16.4935 10.7925C16.0433 10.8658 15.6682 11.1623 15.2935 11.7537L13.3433 15.1538L9.89345 20.9193C9.89345 20.9193 8.46819 23.2107 8.1685 25.5772C8.01803 24.2456 8.09361 6.94811 8.09361 6.94811ZM16.7182 0C7.86824 0 0.743164 7.02255 0.743164 15.7452C0.743164 24.4672 7.86824 31.5641 16.7182 31.5641C25.5688 31.5641 32.7688 24.4672 32.7688 15.7452C32.7688 7.02255 25.5688 0 16.7182 0Z" fill="#B6B3EB"/>
<path d="M29.6312 29.7897H29.9063C30.1936 29.7897 30.3761 29.6349 30.3761 29.4001C30.3761 29.1359 30.1807 29.0198 29.8971 29.0161C29.7669 29.0161 29.6747 29.0288 29.6312 29.0409V29.7897ZM29.3628 28.8558C29.4986 28.8279 29.6932 28.8123 29.8787 28.8123C30.166 28.8123 30.3508 28.8643 30.4811 28.9804C30.5861 29.0712 30.645 29.2115 30.645 29.3693C30.645 29.641 30.4718 29.8206 30.2526 29.8938V29.9028C30.4129 29.9573 30.5087 30.1037 30.5578 30.3166C30.6259 30.6027 30.6757 30.8005 30.7193 30.8798H30.4405C30.4061 30.8192 30.3607 30.645 30.3017 30.3898C30.2397 30.1061 30.1279 30.0002 29.8842 29.9905H29.6312V30.8798H29.3628V28.8558Z" fill="#B6B3EB"/>
<path d="M28.5045 29.857C28.5063 30.6579 29.1639 31.3044 29.9752 31.3057C30.7882 31.3044 31.4434 30.6578 31.4458 29.8569C31.4434 29.0573 30.7882 28.4112 29.9752 28.4095C29.1639 28.4113 28.5063 29.0573 28.5045 29.857ZM28.2466 29.857C28.2466 28.917 29.0197 28.1548 29.9752 28.1548C30.93 28.1548 31.7056 28.917 31.7056 29.8569C31.7056 30.7988 30.93 31.5621 29.9752 31.5621C29.0197 31.5621 28.2466 30.7988 28.2466 29.857Z" fill="#B6B3EB"/>
</svg>
