<svg width="78" height="32" viewBox="0 0 78 32" fill="none" xmlns="http://www.w3.org/2000/svg">
<path fill-rule="evenodd" clip-rule="evenodd" d="M77.3339 16.3089C77.3339 10.9148 74.683 6.65845 69.6163 6.65845C64.5282 6.65845 61.4497 10.9148 61.4497 16.2668C61.4497 22.6091 65.0841 25.8119 70.3004 25.8119C72.8444 25.8119 74.7685 25.2429 76.2222 24.4422V20.2281C74.7685 20.9445 73.101 21.387 70.9845 21.387C68.9108 21.387 67.0722 20.6706 66.8371 18.1842H77.2912C77.2912 17.9103 77.3339 16.8146 77.3339 16.3089ZM66.773 14.3072C66.773 11.9262 68.2481 10.9358 69.5949 10.9358C70.899 10.9358 72.2886 11.9262 72.2886 14.3072H66.773Z" fill="#B6B3EB"/>
<path fill-rule="evenodd" clip-rule="evenodd" d="M53.1973 6.65845C51.1022 6.65845 49.7553 7.62771 49.0071 8.30197L48.7291 6.99558H44.0259V31.5642L49.3705 30.4474L49.3919 24.4844C50.1615 25.0322 51.2946 25.8118 53.1759 25.8118C57.0026 25.8118 60.4873 22.7776 60.4873 16.0982C60.4659 9.98764 56.9385 6.65845 53.1973 6.65845ZM51.9145 21.1763C50.6532 21.1763 49.905 20.7338 49.3919 20.1859L49.3705 12.3686C49.9263 11.7576 50.696 11.3362 51.9145 11.3362C53.86 11.3362 55.2068 13.4854 55.2068 16.2457C55.2068 19.0692 53.8814 21.1763 51.9145 21.1763Z" fill="#B6B3EB"/>
<path fill-rule="evenodd" clip-rule="evenodd" d="M42.0379 0L36.6719 1.11676V5.41521L42.0379 4.27738V0Z" fill="#B6B3EB"/>
<path fill-rule="evenodd" clip-rule="evenodd" d="M36.6719 7.0166H42.0379V25.4536H36.6719V7.0166Z" fill="#B6B3EB"/>
<path fill-rule="evenodd" clip-rule="evenodd" d="M30.9207 8.57587L30.5787 7.01663H25.9609V25.4536H31.3056V12.9586C32.5669 11.3362 34.7047 11.6311 35.3675 11.8629V7.01663C34.6834 6.76378 32.1821 6.30022 30.9207 8.57587Z" fill="#B6B3EB"/>
<path fill-rule="evenodd" clip-rule="evenodd" d="M20.2319 2.44434L15.0155 3.54002L14.9941 20.4178C14.9941 23.5363 17.3672 25.833 20.5312 25.833C22.2842 25.833 23.5669 25.5169 24.2724 25.1376V20.8603C23.5883 21.1342 20.2105 22.1034 20.2105 18.985V11.5048H24.2724V7.01671H20.2105L20.2319 2.44434Z" fill="#B6B3EB"/>
<path fill-rule="evenodd" clip-rule="evenodd" d="M5.77985 12.3686C5.77985 11.5469 6.46397 11.2308 7.59703 11.2308C9.22179 11.2308 11.2741 11.7155 12.8989 12.5794V7.62771C11.1245 6.93237 9.37144 6.65845 7.59703 6.65845C3.25719 6.65845 0.371094 8.89196 0.371094 12.6215C0.371094 18.4371 8.49492 17.5099 8.49492 20.0174C8.49492 20.9866 7.63978 21.3027 6.44259 21.3027C4.66817 21.3027 2.40205 20.5863 0.606257 19.617V24.6319C2.59446 25.4747 4.60404 25.8329 6.44259 25.8329C10.8893 25.8329 13.9464 23.6626 13.9464 19.8909C13.9251 13.6118 5.77985 14.7286 5.77985 12.3686Z" fill="#B6B3EB"/>
</svg>
