<svg width="162" height="33" viewBox="0 0 162 33" fill="none" xmlns="http://www.w3.org/2000/svg">
<mask id="mask0_355_176" style="mask-type:luminance" maskUnits="userSpaceOnUse" x="0" y="0" width="33" height="33">
<path d="M20.2463 26.7567C22.3493 26.7312 24.3452 26.4278 26.1118 25.843C26.5562 25.6953 26.9809 25.5317 27.3824 25.3549C26.8908 26.5377 26.1689 27.5244 25.2276 28.2578C23.3709 29.6051 21.1805 30.5293 18.8027 30.8819C19.3969 29.8689 19.8769 28.4372 20.2463 26.7567ZM10.3487 29.6306C10.305 29.5945 10.2577 29.5611 10.2042 29.5365C9.37709 29.139 9.0425 27.3213 9.47345 24.5415C11.0634 25.2459 12.7943 25.8043 14.6136 26.1868C15.9921 26.477 17.3662 26.6564 18.709 26.7259C18.0505 29.547 17.2064 31.0288 16.647 31.0288C16.6113 31.0288 16.5765 31.0349 16.5426 31.0402C14.3263 31.0253 12.226 30.5231 10.3487 29.6306ZM2.66926 20.644C2.54196 20.167 2.46158 19.679 2.42925 19.1869C2.92712 19.8851 3.53295 20.5657 4.25476 21.2235C5.34507 22.2155 6.63882 23.1037 8.08067 23.8652C7.78623 25.4886 7.70325 26.9598 7.88884 28.1453C5.40396 26.2932 3.54454 23.6718 2.66926 20.644ZM21.184 16.7017C21.184 16.1283 21.1751 15.5523 21.1582 14.9789C23.0113 14.8576 24.7271 14.3827 26.1315 13.5869C27.4324 16.123 28.1301 18.799 28.1247 21.3247C28.1238 22.0563 28.0596 22.7519 27.9418 23.4088C27.2726 23.8125 26.5026 24.1625 25.6363 24.4509C24.0981 24.961 22.3653 25.2389 20.5282 25.2855C20.9708 22.6763 21.184 19.6468 21.184 16.7017ZM14.9259 24.7525C13.0808 24.363 11.3373 23.7852 9.75896 23.0544C10.2774 20.7557 11.2427 17.9707 12.772 14.8787C12.9942 14.4311 13.2208 13.9905 13.4519 13.5596C14.5217 14.0327 15.6861 14.4082 16.9067 14.665C17.8337 14.8611 18.7616 14.9675 19.669 14.9983C19.686 15.5488 19.6931 16.116 19.6931 16.7017C19.6931 20.1586 19.4129 23.0281 19.0079 25.2705C17.6767 25.2134 16.3053 25.0419 14.9259 24.7525ZM5.26656 20.1463C4.00137 18.9943 3.13144 17.7737 2.688 16.5619C3.03954 15.2041 3.71942 13.841 4.71962 12.5351C5.66806 11.2969 6.84849 10.1818 8.20201 9.22331C8.59281 9.91891 9.13975 10.5978 9.83658 11.2415C10.4986 11.8527 11.2704 12.4067 12.1261 12.8913C11.8886 13.3355 11.6583 13.7835 11.4355 14.235C10.1141 16.9039 9.03536 19.7681 8.40187 22.3659C7.22501 21.7125 6.16772 20.9685 5.26656 20.1463ZM20.1722 6.50422C21.8657 7.7468 23.4182 9.34994 24.7164 11.2248C24.9626 11.5801 25.1946 11.9415 25.415 12.3065C24.2257 12.9845 22.7196 13.3899 21.0966 13.5033C20.9592 10.9698 20.6549 8.5321 20.1722 6.50422ZM17.2189 13.2298C16.1411 13.0038 15.1168 12.6776 14.1728 12.2687C15.5629 9.8723 17.0824 7.78901 18.5823 6.2404C19.0507 8.05723 19.4433 10.5002 19.6092 13.5288C18.8196 13.4963 18.0166 13.3987 17.2189 13.2298ZM10.8546 10.1704C10.2381 9.60233 9.77056 9.00961 9.4556 8.41426C10.8511 7.58675 12.3955 6.91225 14.0408 6.42419C15.0196 6.13399 16.01 5.91942 16.9977 5.7708C15.5719 7.3458 14.1479 9.34642 12.8425 11.6065C12.0966 11.1817 11.4283 10.7007 10.8546 10.1704ZM7.6515 5.49291C7.63098 5.56678 7.60957 5.64241 7.59261 5.71979C7.44183 6.41188 7.45967 7.12155 7.63633 7.82507C6.03388 8.91464 4.64021 10.203 3.53027 11.6504C3.19211 12.091 2.88964 12.5413 2.61573 12.9942C3.44105 9.98838 5.23622 7.37306 7.6515 5.49291ZM9.04874 6.02582C9.2138 5.26427 9.67866 4.58362 10.3969 4.0208C12.1359 3.50899 14.1586 3.63211 16.2848 4.39894C15.3899 4.55196 14.4949 4.75598 13.6125 5.01892C11.9699 5.50434 10.4192 6.16917 8.99878 6.97645C8.96666 6.65547 8.98182 6.33713 9.04874 6.02582ZM21.1323 4.09203C21.6435 3.76578 22.1146 3.54241 22.5081 3.45007C23.2549 3.74467 23.9955 4.12193 24.6977 4.59856C23.5708 4.32068 22.3725 4.15183 21.1323 4.09203ZM18.6233 2.52055C19.2274 2.58739 19.8724 2.6894 20.5354 2.84153C20.1205 3.06138 19.6904 3.33575 19.2523 3.66553C19.0578 3.23198 18.8482 2.85033 18.6233 2.52055ZM17.0093 3.09656C16.3356 2.84241 15.67 2.64543 15.0133 2.50472C15.5398 2.44668 16.0724 2.41327 16.6149 2.41327C16.8683 2.41591 17.1797 2.71666 17.5053 3.29794C17.3403 3.22847 17.1752 3.15987 17.0093 3.09656ZM0.621582 16.7272C0.621582 18.2274 0.840179 19.6776 1.23901 21.0538C1.2631 21.1461 1.2863 21.2385 1.31396 21.3308C1.31931 21.3475 1.32734 21.3634 1.33359 21.3818C3.35361 27.8199 9.44936 32.5097 16.6354 32.5097C19.9599 32.5097 23.0497 31.5054 25.6122 29.7906C25.6381 29.7757 25.6639 29.7633 25.6871 29.7475C25.8388 29.6455 25.986 29.5382 26.1288 29.4257C29.0758 27.2808 31.2511 24.1651 32.1683 20.5605C32.2201 20.3951 32.2647 20.2263 32.3022 20.0557C32.3111 20.0144 32.3138 19.9757 32.3156 19.9352C32.5341 18.8984 32.6484 17.8256 32.6484 16.7281C32.6484 14.5982 32.2254 12.5307 31.3894 10.5855C31.2288 10.2117 30.7925 10.0367 30.4133 10.1959C30.0341 10.3524 29.8574 10.7842 30.0172 11.1571C30.7747 12.9203 31.1583 14.7952 31.1583 16.7281C31.1583 17.9126 31.0093 19.0629 30.7318 20.1647C30.5115 20.8595 30.1251 21.5023 29.5907 22.0862C29.604 21.8374 29.6121 21.5858 29.613 21.3282C29.6192 18.5124 28.8287 15.5382 27.3636 12.7426C28.4379 11.8334 29.124 10.7095 29.3587 9.45283C29.4336 9.05446 29.166 8.67193 28.7618 8.59806C28.3567 8.52331 27.9686 8.78713 27.8936 9.18637C27.7384 10.0174 27.3003 10.7798 26.6151 11.4271C26.4018 11.0797 26.1805 10.7359 25.9459 10.3973C24.6388 8.50836 23.0854 6.87444 21.3857 5.5703C23.6296 5.71628 25.7032 6.25183 27.3735 7.17168C27.6349 7.31854 27.9829 7.31414 28.2282 7.11276C28.5441 6.85333 28.5869 6.38901 28.3219 6.07771C25.9227 2.7703 21.7729 0.945557 16.6336 0.945557C7.80586 0.944677 0.621582 8.02469 0.621582 16.7272Z" fill="white"/>
</mask>
<g mask="url(#mask0_355_176)">
<path d="M0.621582 0.94458H32.6484V32.5096H0.621582V0.94458Z" fill="#B6B3EB"/>
</g>
<path d="M36.1729 7.98151H44.2583V9.61633H41.289V17.8158H39.1449V9.61633H36.1737L36.1729 7.98151ZM45.3933 17.8151V7.98078H47.5365V11.8625H51.3097V7.98092H53.4788V17.8151H51.3374V13.4964H47.5363V17.8151H45.3933ZM55.2247 7.98151H61.9148V9.61633H57.3688V11.9186H61.6257V13.5525H57.3688V16.182H62.0674V17.816H55.2256L55.2247 7.98151ZM72.558 7.98151H74.9751L76.7167 15.3783H76.7438L78.3481 7.98151H80.393L77.8502 17.8158H75.4742L73.6782 10.3233H73.6512L71.714 17.8158H69.2836L66.8514 7.98151H69.0633L70.5962 15.3783H70.6267L72.558 7.98151ZM81.1213 12.899C81.1213 9.9979 82.6132 7.77563 85.9153 7.77563C89.2166 7.77563 90.7111 9.99702 90.7111 12.899C90.7111 15.801 89.2166 18.0189 85.9153 18.0189C82.6113 18.0189 81.1213 15.8 81.1213 12.899ZM83.3992 12.899C83.3992 14.5857 83.8008 16.4931 85.9144 16.4931C88.0291 16.4931 88.4305 14.5857 88.4305 12.899C88.4305 11.2088 88.0291 9.30056 85.9144 9.30056C83.8006 9.30056 83.3992 11.2098 83.3992 12.899ZM94.2636 17.8151H92.1204V7.98078H96.3621C98.077 7.99411 99.832 8.53832 99.832 10.5424C99.832 11.8219 98.9891 12.668 97.7593 12.9256V12.9522C99.4046 13.1289 99.4046 14.1227 99.5839 15.4857C99.682 16.1127 99.7633 17.2709 100.164 17.8135H97.8003C97.6219 16.9428 97.5238 16.0573 97.4283 15.1708C97.3719 14.6272 97.2331 13.878 96.5298 13.8516H94.2644V17.8133L94.2636 17.8151ZM94.2636 12.2168H96.0581C97.0002 12.2002 97.5516 11.7401 97.5516 10.867C97.5516 9.99628 97.0003 9.62776 96.0579 9.61472H94.2636V12.2168ZM101.474 17.8151V7.98078H103.617V16.1811H107.943V17.8151H101.474ZM109.101 7.98151H112.502C115.61 7.95499 117.545 9.47918 117.545 12.8992C117.545 16.3174 115.61 17.8423 112.502 17.8152H109.101V7.98151ZM111.242 16.181H112.348C114.892 16.2077 115.266 14.4637 115.266 12.899C115.266 11.3319 114.892 9.58893 112.348 9.61619H111.242V16.181ZM122.972 17.8151V7.98078H126.717C128.5 7.87176 130.325 8.60865 130.325 10.5285C130.325 11.604 129.563 12.3542 128.569 12.6795V12.7062C129.828 12.9657 130.765 13.8239 130.765 15.2661C130.765 17.214 128.276 17.9238 126.744 17.8138L122.972 17.8151ZM126.786 16.1803C127.795 16.1803 128.486 16.0028 128.486 14.8726C128.486 13.7426 127.796 13.565 126.786 13.565H125.112V16.1813L126.786 16.1803ZM126.786 11.9319C127.685 11.9319 128.18 11.5636 128.18 10.7738C128.18 9.98236 127.684 9.61648 126.786 9.61648H125.112V11.9328L126.786 11.9319ZM131.431 17.8151L135.039 7.98078H137.582L141.049 17.8151H138.895L138.176 15.7309H134.224L133.476 17.8151H131.431ZM137.636 14.0971L136.269 9.90148H136.242L134.777 14.0971H137.636ZM148.126 17.8151L144.187 9.64198L144.16 9.66865V17.8136H142.157V7.97931H145.334L149.137 15.7163L149.164 15.6865V7.9774H151.168V17.8124L148.126 17.8151ZM155.054 12.2309H155.081L158.399 7.98078H160.899L157.237 12.3805L161.218 17.8152H158.551L155.082 12.8025H155.055V17.8152H152.914V7.98063H155.055L155.054 12.2309Z" fill="#B6B3EB"/>
</svg>
